<svg height="512pt" viewBox="0 -15 512.00006 512" width="512pt" xmlns="http://www.w3.org/2000/svg"><path d="m110.472656 450.382812c.09375 4.417969 4.519532 7.515626 8.699219 6.089844 19.46875-6.621094 43.449219-1.441406 64.199219-31.074218 12.203125-17.429688 12.933594-47.375-6.3125-60.851563s-47.136719-2.546875-59.339844 14.882813c-20.75 29.632812-7.679688 50.394531-7.246094 70.953124zm0 0" fill="#4e5660"/><path d="m188.757812 482.835938c-9.644531 0-18.144531-6.976563-19.757812-16.804688-4.78125-29.164062-4.78125-55.9375 10.757812-91.804688 4.398438-10.15625 16.203126-14.820312 26.359376-10.421874 10.15625 4.402343 14.824218 16.203124 10.421874 26.359374-11.742187 27.105469-11.820312 45.964844-7.980468 69.378907 1.792968 10.925781-5.613282 21.234375-16.535156 23.023437-1.097657.179688-2.1875.269532-3.265626.269532zm0 0" fill="#e9901b"/><path d="m318.246094 457.40625c-9.992188 0-18.640625-7.46875-19.871094-17.640625-2.539062-21.023437-13.757812-42.542969-29.273438-56.15625-8.320312-7.300781-9.148437-19.964844-1.847656-28.285156 7.300782-8.320313 19.964844-9.148438 28.285156-1.847657 22.964844 20.152344 38.902344 50.609376 42.632813 81.480469 1.328125 10.992188-6.507813 20.976563-17.496094 22.304688-.8125.097656-1.625.144531-2.429687.144531zm0 0" fill="#e9901b"/><path d="m60.886719 367.449219c-2.273438 0-4.585938-.386719-6.851563-1.210938-10.402344-3.785156-15.765625-15.285156-11.980468-25.6875 16.550781-45.511719 70.019531-69.53125 99.832031-73.984375 10.949219-1.625 21.148437 5.917969 22.78125 16.863282 1.636719 10.949218-5.914063 21.152343-16.863281 22.785156-22.433594 3.351562-58.574219 21.90625-68.078126 48.039062-2.964843 8.140625-10.652343 13.195313-18.839843 13.195313zm0 0" fill="#e9901b"/><path d="m387.339844 326.964844c-2.121094 0-4.277344-.339844-6.398438-1.054688-34.386718-11.582031-68.566406-31.441406-98.835937-57.4375-8.394531-7.210937-9.359375-19.867187-2.144531-28.261718 7.210937-8.398438 19.863281-9.359376 28.261718-2.148438 26.394532 22.667969 55.964844 39.90625 85.511719 49.859375 10.488281 3.53125 16.128906 14.898437 12.597656 25.390625-2.820312 8.367188-10.625 13.652344-18.992187 13.652344zm0 0" fill="#e9901b"/><path d="m240.546875 396.230469c61.191406-10.789063 99.703125-47.683594 84.898437-107.730469-14.890624-60.402344-72.96875-101.378906-120.300781-93.03125s-87.890625 66.710938-81.226562 128.570312c6.625 61.484376 55.433593 82.980469 116.628906 72.191407zm0 0" fill="#eea849"/><path d="m44.296875 165.523438c-31.117187-20.253907-44.25-62.410157-44.296875-93.40625-.0117188-6.800782 4.804688-12.675782 11.480469-13.992188 32.789062-6.464844 77-5.824219 101.210937 26.082031zm0 0" fill="#4e5660"/><path d="m.015625 73.054688c.304687 30.902343 13.476563 72.417968 44.28125 92.46875l42.714844-50.785157c-20.402344-21.753906-52.085938-37.917969-86.996094-41.683593zm0 0" fill="#f2d1a5"/><path d="m346.050781 112.316406c22.3125-29.675781 20.234375-73.78125 9.679688-102.925781-2.316407-6.394531-8.851563-10.265625-15.574219-9.222656-33.023438 5.140625-74.347656 20.863281-86.1875 59.128906zm0 0" fill="#4e5660"/><path d="m356.035156 10.277344c10.285156 29.144531 12.105469 72.660156-9.984375 102.039062l-57.507812-33.113281c11.730469-27.417969 35.976562-53.449219 67.492187-68.925781zm0 0" fill="#f2d1a5"/><path d="m179.945312 52.566406c113.90625-20.085937 128.527344 48.539063 202.78125 76.144532 14.039063 5.21875 19.757813 22.023437 11.472657 34.503906-36.273438 54.640625-95.128907 99.019531-174.804688 113.066406-79.679687 14.050781-150.160156-7.519531-202.933593-46.460938-12.054688-8.894531-12.429688-26.640624-1.019532-36.347656 60.332032-51.335937 50.601563-120.824218 164.503906-140.90625zm0 0" fill="#eea849"/><path d="m118.039062 73.785156c-51.257812 30.25-56.316406 80.308594-102.597656 119.6875-11.410156 9.707032-11.035156 27.453125 1.019532 36.347656 52.773437 38.941407 123.257812 60.511719 202.933593 46.460938 9.148438-1.613281 18.011719-3.644531 26.609375-6.027344-145.449218 5.933594-160.753906-131.382812-127.964844-196.46875zm0 0" fill="#e9901b"/><path d="m394.199219 163.214844c5.183593-7.808594 4.886719-17.304688.5-24.601563-93.972657 79.636719-140.199219-7.203125-199.019531 3.167969-58.824219 10.371094-72.558594 107.785156-188.105469 65.089844-1.625 8.359375 1.34375 17.386718 8.882812 22.949218 52.777344 38.9375 123.257813 60.511719 202.9375 46.460938 79.675781-14.046875 138.53125-58.425781 174.804688-113.066406zm0 0" fill="#f7ef87"/><path d="m115.644531 199.710938c-24.222656 17.074218-55.679687 26.519531-108.066406 7.164062-1.625 8.355469 1.34375 17.382812 8.882813 22.945312 52.773437 38.941407 123.257812 60.511719 202.933593 46.460938 9.148438-1.613281 18.011719-3.644531 26.609375-6.027344-72.109375 2.941406-112.226562-29.324218-130.359375-70.542968zm0 0" fill="#efd176"/><path d="m133.257812 182.472656c-2.898437-16.433594-21.976562-26.808594-42.613281-23.167968-20.636719 3.636718-35.019531 19.910156-32.125 36.34375 2.898438 16.4375 21.976563 26.808593 42.617188 23.171874 20.636719-3.636718 35.019531-19.910156 32.121093-36.347656zm0 0" fill="#fff"/><path d="m342.96875 145.503906c-2.898438-16.433594-21.976562-26.808594-42.617188-23.167968-20.636718 3.636718-35.019531 19.910156-32.121093 36.34375 2.898437 16.4375 21.976562 26.808593 42.613281 23.171874 20.640625-3.636718 35.019531-19.910156 32.125-36.347656zm0 0" fill="#fff"/><g fill="#4e5660"><path d="m112.4375 163.03125c-3.574219 0-6.738281-2.558594-7.378906-6.199219l-2.328125-13.195312c-.71875-4.078125 2.003906-7.96875 6.085937-8.6875 4.074219-.71875 7.96875 2.003906 8.6875 6.082031l2.324219 13.195312c.722656 4.082032-2.003906 7.96875-6.082031 8.691407-.4375.078125-.878906.113281-1.308594.113281zm0 0"/><path d="m278.585938 133.734375c-3.570313 0-6.734376-2.558594-7.375-6.199219l-2.328126-13.195312c-.71875-4.078125 2.007813-7.96875 6.085938-8.6875 4.078125-.722656 7.96875 2.003906 8.6875 6.082031l2.324219 13.195313c.722656 4.082031-2.003907 7.972656-6.082031 8.691406-.441407.078125-.878907.113281-1.3125.113281zm0 0"/><path d="m205.109375 228.699219c-7.59375 0-15.03125-2.589844-21.042969-7.441407-3.222656-2.605468-3.722656-7.324218-1.121094-10.546874 2.605469-3.222657 7.324219-3.726563 10.546876-1.125 4.164062 3.363281 9.5625 4.757812 14.816406 3.835937 5.253906-.925781 9.851562-4.085937 12.613281-8.671875 2.140625-3.546875 6.75-4.691406 10.296875-2.550781 3.546875 2.136719 4.6875 6.746093 2.550781 10.292969-5 8.296874-13.332031 14.019531-22.855469 15.699218-1.929687.339844-3.871093.507813-5.804687.507813zm0 0"/><path d="m216.261719 161.015625c-11.4375-.933594-22.917969 1.089844-33.347657 5.878906-4.316406 1.980469-7.769531 5.464844-9.71875 9.796875-2.628906 5.851563.675782 12.65625 6.902344 14.207032l17.273438 4.300781c5.144531 1.277343 10.589844.316406 14.988281-2.644531l14.757813-9.945313c5.324218-3.585937 6.101562-11.113281 1.625-15.714844-3.3125-3.402343-7.746094-5.492187-12.480469-5.878906zm0 0"/></g><path d="m468.300781 256.066406-22.464843-22.46875-81.386719 81.390625c-4.5 4.5-4.5 11.792969 0 16.289063l6.171875 6.175781c4.5 4.5 11.792968 4.5 16.292968 0zm0 0" fill="#e26e7e"/><path d="m497.199219 210.726562 8.742187.726563c5.34375.445313 7.953125 6.742187 4.488282 10.835937l-5.667969 6.695313c-2.082031 2.460937-2.082031 6.0625 0 8.523437l5.667969 6.695313c3.464843 4.09375.855468 10.390625-4.488282 10.835937l-8.742187.726563c-3.210938.269531-5.757813 2.816406-6.023438 6.027344l-.730469 8.742187c-.441406 5.34375-6.742187 7.953125-10.835937 4.488282l-6.695313-5.667969c-2.457031-2.082031-6.0625-2.082031-8.523437 0l-6.695313 5.667969c-4.09375 3.464843-10.390624.855468-10.835937-4.488282l-.726563-8.742187c-.265624-3.210938-2.816406-5.757813-6.027343-6.027344l-8.738281-.726563c-5.34375-.445312-7.953126-6.742187-4.488282-10.835937l5.667969-6.695313c2.082031-2.460937 2.082031-6.0625 0-8.523437l-5.667969-6.695313c-3.464844-4.09375-.855468-10.390624 4.488282-10.835937l8.738281-.726563c3.210937-.265624 5.761719-2.816406 6.027343-6.027343l.726563-8.738281c.445313-5.34375 6.742187-7.953126 10.835937-4.488282l6.695313 5.664063c2.460937 2.082031 6.066406 2.082031 8.523437 0l6.695313-5.664063c4.09375-3.464844 10.394531-.855468 10.835937 4.488282l.730469 8.738281c.265625 3.210937 2.8125 5.761719 6.023438 6.027343zm0 0" fill="#f7ef87"/><path d="m459.515625 193.011719-1.820313-1.539063c-4.09375-3.464844-10.390624-.855468-10.835937 4.488282l-.726563 8.738281c-.265624 3.210937-2.816406 5.761719-6.027343 6.027343l-8.738281.726563c-5.34375.445313-7.953126 6.742187-4.488282 10.835937l5.667969 6.695313c2.082031 2.460937 2.082031 6.0625 0 8.523437l-5.667969 6.695313c-3.464844 4.09375-.855468 10.390625 4.488282 10.835937l8.738281.726563c3.210937.269531 5.761719 2.816406 6.027343 6.027344l.726563 8.742187c.445313 5.34375 6.742187 7.953125 10.835937 4.488282l6.695313-5.667969c2.460937-2.082031 6.0625-2.082031 8.523437 0l6.695313 5.667969c4.09375 3.464843 10.390625.855468 10.835937-4.488282l.726563-8.742187c.082031-1 .410156-1.921875.886719-2.746094-19.003906-10.59375-36.109375-38.324219-32.542969-66.035156zm0 0" fill="#efd176"/><path d="m384.742188 294.695312-20.296876 20.292969c-4.496093 4.5-4.496093 11.792969 0 16.289063l6.175782 6.175781c4.5 4.5 11.792968 4.5 16.289062 0l20.296875-20.292969zm0 0" fill="#a3defe"/><path d="m448 150.988281c-4.144531 0-7.5-3.359375-7.5-7.5v-17.195312c0-4.140625 3.355469-7.5 7.5-7.5s7.5 3.359375 7.5 7.5v17.195312c0 4.140625-3.355469 7.5-7.5 7.5zm0 0" fill="#89d47f"/><path d="m456.597656 142.390625h-17.195312c-4.140625 0-7.5-3.355469-7.5-7.5 0-4.140625 3.359375-7.5 7.5-7.5h17.195312c4.140625 0 7.5 3.359375 7.5 7.5 0 4.144531-3.359375 7.5-7.5 7.5zm0 0" fill="#89d47f"/><path d="m477.25 335.84375c-4.140625 0-7.5-3.359375-7.5-7.5v-17.195312c0-4.140626 3.359375-7.5 7.5-7.5 4.144531 0 7.5 3.359374 7.5 7.5v17.195312c0 4.140625-3.355469 7.5-7.5 7.5zm0 0" fill="#8eafe2"/><path d="m485.847656 327.246094h-17.195312c-4.140625 0-7.5-3.359375-7.5-7.5s3.359375-7.5 7.5-7.5h17.195312c4.140625 0 7.5 3.359375 7.5 7.5s-3.359375 7.5-7.5 7.5zm0 0" fill="#8eafe2"/><path d="m479.769531 173.242188c-1.921875 0-3.839843-.730469-5.304687-2.195313-2.929688-2.929687-2.929688-7.679687 0-10.605469l12.160156-12.160156c2.929688-2.929688 7.675781-2.929688 10.605469 0 2.929687 2.929688 2.929687 7.679688 0 10.605469l-12.160157 12.160156c-1.464843 1.464844-3.382812 2.195313-5.300781 2.195313zm0 0" fill="#e26e7e"/><path d="m491.925781 173.242188c-1.917969 0-3.835937-.730469-5.300781-2.195313l-12.160156-12.160156c-2.929688-2.925781-2.929688-7.675781 0-10.605469 2.929687-2.929688 7.679687-2.929688 10.605468 0l12.160157 12.160156c2.929687 2.925782 2.929687 7.675782 0 10.605469-1.464844 1.464844-3.382813 2.195313-5.304688 2.195313zm0 0" fill="#e26e7e"/></svg>